<?xml version="1.0" encoding="UTF-8"?>
<!DOCTYPE svg PUBLIC "-//W3C//DTD SVG 1.1//EN" "http://www.w3.org/Graphics/SVG/1.1/DTD/svg11.dtd">
<!-- Creator: CorelDRAW X8 -->
<svg xmlns="http://www.w3.org/2000/svg" xml:space="preserve" width="149.452mm" height="70.5571mm" version="1.1" style="shape-rendering:geometricPrecision; text-rendering:geometricPrecision; image-rendering:optimizeQuality; fill-rule:evenodd; clip-rule:evenodd"
viewBox="0 0 14945 7056"
 xmlns:xlink="http://www.w3.org/1999/xlink">
 <defs>
  <style type="text/css">
   <![CDATA[
    .fil0 {fill:none}
    .fil2 {fill:black}
    .fil1 {fill:url(#id0)}
   ]]>
  </style>
  <linearGradient id="id0" gradientUnits="userSpaceOnUse" x1="955.735" y1="3926.81" x2="5232.81" y2="3926.81">
   <stop offset="0" style="stop-opacity:1; stop-color:#4B15F2"/>
   <stop offset="1" style="stop-opacity:1; stop-color:#DF13B7"/>
  </linearGradient>
 </defs>
 <g id="Capa_x0020_1">
  <metadata id="CorelCorpID_0Corel-Layer"/>
  <polygon class="fil0" points="14945,7056 0,7056 0,0 14945,0 "/>
  <path class="fil1" d="M3094 1788c591,0 1126,239 1513,626 387,387 626,922 626,1513 0,590 -239,1125 -626,1512 -387,387 -922,626 -1513,626 -590,0 -1125,-239 -1512,-626 -387,-387 -626,-922 -626,-1512 0,-591 239,-1126 626,-1513 387,-387 922,-626 1512,-626zm1203 1355c-5,-35 -12,-69 -20,-102 -187,-154 -402,-272 -632,-348 -301,-100 -630,-128 -961,-68 -17,3 -29,20 -26,37 3,18 20,29 37,26l0 0c320,-57 638,-31 930,66 248,82 477,215 672,389zm-72 -263c-17,-41 -35,-79 -56,-115 -214,-136 -451,-234 -701,-286 -317,-68 -654,-63 -988,27 -102,27 -200,61 -293,102 -22,9 -44,19 -65,29 -33,37 -64,77 -91,119 58,-33 119,-62 181,-89 91,-40 186,-73 285,-99 324,-87 651,-92 958,-27 278,59 540,175 770,339zm-204 -310c-63,-64 -134,-117 -209,-160 -130,-47 -264,-83 -400,-106 -17,-3 -34,9 -37,27 -3,17 9,34 27,37l0 0c138,23 275,60 409,110 71,27 141,58 210,92zm-1374 -265c-106,34 -206,80 -295,138 107,-35 215,-61 325,-78 197,-32 397,-37 594,-16 18,2 34,-10 36,-28 2,-18 -11,-34 -29,-35 -203,-23 -409,-17 -612,15l-19 4zm-701 615c-13,33 -25,67 -34,102 83,-60 170,-114 261,-160 126,-63 258,-112 395,-147 17,-4 28,-21 24,-39 -5,-17 -22,-27 -39,-23 -142,36 -279,87 -409,152 -68,34 -134,73 -198,115zm-61 245c-3,29 -5,59 -5,89 73,-65 152,-123 236,-175 140,-87 296,-155 464,-200 212,-57 424,-72 629,-51 213,22 419,84 607,179 15,8 35,2 43,-14 8,-16 1,-35 -15,-43 -194,-99 -407,-163 -628,-186 -213,-22 -433,-6 -652,52 -174,47 -336,118 -482,208 -69,43 -135,90 -197,141zm2 214c4,26 9,52 15,76 88,-90 186,-169 292,-235 213,-133 459,-216 717,-235 18,-2 31,-17 30,-35 -2,-18 -17,-31 -35,-30 -269,21 -524,107 -746,246 -98,61 -190,132 -273,213zm50 179c10,22 20,42 31,62 38,-43 79,-84 122,-122 13,-12 15,-32 3,-46 -12,-13 -32,-14 -46,-2 -38,34 -75,70 -110,108zm86 147c13,17 27,34 41,51 160,-194 380,-341 641,-411 52,-14 104,-25 156,-32 -14,-19 -25,-39 -31,-60 -47,7 -94,17 -141,30 -271,72 -499,223 -666,422zm109 120c16,14 32,28 49,41 140,-172 334,-304 566,-366 113,-30 227,-42 339,-36 -46,-19 -88,-40 -125,-63 -77,4 -154,16 -231,37 -244,66 -449,205 -598,387zm128 98c18,12 36,24 55,35 118,-142 279,-249 470,-301 17,-5 27,-23 22,-40 -4,-17 -22,-27 -39,-22 -207,56 -382,174 -508,328zm142 82c20,9 40,19 60,28 96,-104 222,-183 368,-222 206,-55 415,-22 586,77l0 0c171,99 305,263 360,469 7,26 13,50 18,72 6,22 11,46 17,72 4,18 21,29 38,25 17,-4 29,-21 25,-38 -5,-23 -11,-47 -17,-74 -7,-26 -13,-51 -19,-73l0 0c-60,-224 -204,-401 -390,-508l0 0 0 0c-185,-107 -412,-144 -635,-84 -165,44 -306,136 -411,256zm332 131c26,9 51,19 76,28 32,-18 66,-32 103,-42 121,-32 242,-13 342,45 100,57 178,153 210,273 74,275 102,550 90,819 -4,98 -14,195 -28,291 22,-5 45,-12 67,-18 13,-89 21,-179 25,-270 13,-276 -17,-558 -92,-838l0 0c-37,-137 -126,-247 -240,-313 -114,-66 -253,-88 -390,-51 -60,16 -115,42 -163,76zm211 77c181,66 309,114 392,168 -31,-54 -76,-99 -128,-129l-2 -1c-77,-45 -170,-60 -262,-38zm481 502c-15,21 -34,40 -56,56 14,96 22,192 26,286 0,18 15,32 33,31 17,0 31,-15 31,-33 -4,-99 -12,-198 -27,-297 -2,-14 -5,-29 -7,-43zm-147 104c-20,7 -41,13 -63,17 23,173 26,345 11,514 -8,83 -19,166 -35,248 22,-1 44,-3 66,-4 15,-79 26,-159 33,-239 15,-176 12,-355 -12,-536zm-159 25c-15,0 -38,-1 -66,-6 6,40 10,81 14,121 11,134 9,267 -3,397 -2,18 11,34 28,35 18,2 34,-11 35,-28 14,-135 15,-272 4,-410 -3,-36 -7,-72 -12,-109zm-168 -37c-25,-12 -51,-27 -74,-48 39,206 46,411 23,611 -8,70 -19,140 -34,209 21,3 42,6 64,9 15,-70 26,-140 34,-211 21,-187 18,-378 -13,-570zm-212 -252l-64 0c0,31 4,62 12,94l0 1c64,238 80,478 53,709 -8,63 -18,126 -32,187 21,6 42,11 63,15 14,-64 25,-129 32,-194 28,-240 12,-488 -54,-735l0 -1c-7,-25 -10,-51 -10,-76zm-161 0l-64 0c0,45 6,90 18,135l0 2c7,27 14,54 20,81 6,28 11,56 16,83 3,17 19,29 37,26 17,-3 29,-19 26,-37 -5,-29 -10,-58 -16,-86 -7,-28 -14,-57 -21,-85l-1 -1c-10,-40 -15,-79 -15,-118zm-161 0l-64 0c0,58 7,118 23,177l1 1c51,193 64,386 45,573l0 1c-5,41 -11,81 -18,122 19,10 39,20 59,30 10,-48 17,-96 22,-145l1 -1c20,-195 6,-397 -48,-598l0 -1 0 0c-14,-53 -21,-106 -21,-159zm-161 0l-64 0c0,72 9,146 29,219l0 1c17,63 29,127 37,191 9,65 12,131 11,194 0,18 14,33 32,33 18,0 32,-14 32,-32 1,-68 -2,-136 -11,-203 -8,-67 -21,-134 -39,-201l0 -1c-18,-67 -27,-134 -27,-201zm-161 0l-64 0c0,86 11,173 34,260l1 1c34,128 47,257 41,382 20,22 40,42 60,62 2,-15 3,-30 4,-46 7,-136 -6,-276 -43,-415l-1 -1 0 0c-21,-81 -32,-163 -32,-243zm-160 0l-65 0c0,100 13,201 40,302l0 1c3,11 6,23 9,34 25,64 56,124 91,178 -5,-76 -17,-153 -38,-230l0 -1 0 0c-26,-95 -38,-190 -37,-284zm321 779c19,15 39,29 59,42 4,-27 8,-53 10,-80 2,-18 -10,-34 -28,-35 -18,-2 -34,11 -35,28l0 0c-2,15 -4,30 -6,45zm298 163c20,8 41,15 61,22l4 -19c34,-168 45,-342 29,-518 -1,-17 -17,-30 -34,-29 -18,2 -31,17 -29,35l0 0c15,169 4,337 -29,499l-2 10zm473 99c22,1 43,2 65,3 7,-34 13,-69 18,-103 3,-17 -9,-34 -26,-37 -18,-2 -34,9 -37,27l0 0c-6,37 -13,74 -20,110zm330 -13c23,-3 45,-7 67,-11 21,-126 33,-255 36,-385 0,-18 -14,-32 -32,-33 -17,0 -32,14 -32,32l0 0c-3,134 -16,267 -39,397zm339 -86c23,-9 45,-19 68,-29 10,-95 17,-192 18,-289 3,-263 -29,-531 -100,-797l0 0c-48,-179 -164,-322 -313,-409l-2 -1c-150,-87 -333,-116 -513,-68 -44,12 -86,28 -125,48 -41,20 -79,44 -114,71 -14,11 -16,31 -6,45 11,14 31,16 45,6 32,-25 66,-47 103,-65 36,-17 74,-32 114,-43 163,-43 328,-17 464,62l1 0c135,79 240,208 284,371 69,261 101,522 98,779 -2,107 -9,214 -22,319zm170 -80c23,-13 46,-27 68,-41 4,-56 7,-113 8,-170 4,-195 -10,-393 -44,-590 -3,-18 -20,-29 -37,-26 -18,3 -30,19 -27,37l0 0c34,194 48,387 44,578 -1,71 -5,142 -12,212zm170 -115c23,-19 45,-38 66,-59 4,-107 2,-214 -6,-322 -14,-207 -48,-415 -103,-622l0 0c-66,-243 -216,-442 -410,-571 -197,-132 -439,-193 -686,-160 -17,3 -30,19 -27,36 2,18 18,30 36,28 230,-31 457,26 641,149 182,121 322,307 383,535 55,203 88,407 102,609 9,127 10,253 4,377zm164 -168c23,-29 44,-60 63,-91 -3,-100 -10,-200 -22,-301 -19,-161 -50,-323 -93,-485l0 0c-19,-69 -43,-135 -73,-197 -30,-64 -66,-125 -107,-181 -10,-15 -30,-18 -45,-7 -14,10 -17,30 -7,44 38,53 72,110 101,171 28,59 51,121 69,187 42,158 73,317 91,476 16,129 23,257 23,384zm150 -277c20,-60 35,-123 44,-189 -6,-45 -13,-91 -21,-136 -18,-106 -41,-211 -70,-316l0 0c-23,-86 -54,-168 -92,-245 -45,-51 -98,-96 -155,-136 83,117 146,251 185,397 28,104 51,207 69,311 18,104 31,209 40,314l0 0zm-536 -1152c-66,-28 -135,-53 -206,-76 80,50 154,110 219,179 12,13 33,14 46,2 12,-12 13,-33 1,-46 -19,-20 -40,-40 -60,-59zm-988 -549c6,-23 16,-47 32,-69 -70,8 -141,21 -212,40 -90,24 -176,56 -258,96 -83,39 -162,87 -234,140 -15,11 -18,31 -7,45 10,14 30,17 45,7 69,-51 144,-97 224,-135 78,-37 160,-67 246,-91 55,-14 109,-25 164,-33zm529 -43c12,25 19,49 22,71 47,12 94,27 139,43l163 0c-103,-50 -211,-88 -324,-114zm521 114l115 0c-14,-10 -28,-19 -42,-29 -265,-179 -581,-281 -911,-282 -18,0 -32,14 -32,32 0,17 14,32 32,32l0 0c301,1 591,90 838,247zm272 0l97 0c-88,-80 -183,-151 -285,-212 -15,-10 -35,-5 -44,10 -9,16 -4,35 11,45l0 0c77,46 151,99 221,157zm350 -705c-360,-359 -856,-581 -1405,-581 -548,0 -1045,222 -1404,581 -359,360 -582,856 -582,1405 0,548 223,1045 582,1404 359,360 856,582 1404,582 549,0 1045,-222 1405,-582 359,-359 581,-856 581,-1404 0,-549 -222,-1045 -581,-1405l0 0z"/>
  <path class="fil2" d="M7865 3366c-65,-675 -647,-809 -984,-809 -532,0 -994,338 -994,846 0,347 277,564 610,670 490,190 679,213 679,412 0,125 -138,199 -268,199 -32,0 -259,0 -291,-236l-763 0c70,675 657,850 1045,850 569,0 1045,-332 1045,-873 0,-555 -462,-684 -897,-805 -203,-60 -393,-138 -393,-277 0,-69 56,-171 217,-171 227,0 236,139 241,194l753 0zm4152 1845l767 0 0 -1983 324 0 0 -583 -324 0 0 -102c0,-217 171,-240 236,-240l88 0 0 -578 -111 0c-375,0 -980,65 -980,786 0,900 0,1800 0,2700zm-1071 0l767 0 0 -3421 -767 0 0 3421zm-1091 -805c-107,134 -232,241 -467,241 -301,0 -555,-181 -601,-486l1923 0c9,-60 18,-101 18,-203 0,-781 -573,-1401 -1354,-1401 -781,0 -1345,661 -1345,1378 0,762 624,1359 1359,1359 263,0 517,-79 730,-231 217,-148 398,-370 522,-657l-785 0zm-1059 -762c32,-153 185,-440 582,-440 398,0 551,287 583,440l-1165 0z"/>
 </g>
</svg>
